# xmcd
#
# Track frame offsets: 
#        150
#        21431
#        39477
#        65930
#        81681
#        99680
#        113980
#        137898
#        156960
#        166309
#        182167
#
# Disc length: 2764 seconds
#
# Revision: 0
# Processed by: cddbd v1.5.2PL0 Copyright (c) Steve Scherf et al.
# Submitted via: ExactAudioCopy v0.99pb5
#
DISCID=a40aca0b
DTITLE=Struck By Lightning - Serpents
DYEAR=1900
DGENRE=Metal
TTITLE0=Silent and Still
TTITLE1=Nothing Sacred
TTITLE2=The Watchful Eye
TTITLE3=Supercell
TTITLE4=Widowmaker
TTITLE5=Tightening the Noose
TTITLE6=Becoming Earth
TTITLE7=Bottomless Pit
TTITLE8=Collection of Teeth
TTITLE9=False Hope
TTITLE10=The Herd
EXTD=
EXTT0=
EXTT1=
EXTT2=
EXTT3=
EXTT4=
EXTT5=
EXTT6=
EXTT7=
EXTT8=
EXTT9=
EXTT10=
PLAYORDER=
